<svg width="552" height="380" viewBox="0 0 552 380" fill="none" xmlns="http://www.w3.org/2000/svg">
<path d="M56.6021 220.894V180.358L112.1 148.243L167.808 180.479C167.808 198.029 167.808 215.379 167.808 220.894L112.199 253.075L56.6021 220.894Z" fill="#C49B7B"/>
<path d="M56.6021 180.38V220.938L112.199 253.075C112.199 249.219 112.199 212.517 112.199 212.517L56.6021 180.38Z" fill="#8C6239"/>
<path d="M56.6021 180.38L112.211 148.243L167.808 180.38L112.211 212.517L56.6021 180.38Z" fill="url(#paint0_linear)"/>
<path d="M167.565 180.523L167.819 180.38C167.819 197.985 167.819 215.401 167.819 220.938L112.199 253.075C112.199 248.655 112.199 218.816 112.199 212.517L167.565 180.523Z" fill="#C69C6D"/>
<path d="M134.81 199.454V226.475L148.488 218.573C148.488 205.931 148.488 191.553 148.488 191.553" fill="#F4EBDA"/>
<path d="M134.809 199.454L148.488 191.553L92.8795 159.415L79.2009 167.317L134.809 199.454Z" fill="#F4EBDA"/>
<path d="M77.2801 208.782C82.97 211.595 87.9629 215.641 91.8966 220.627C95.8303 225.612 98.606 231.411 100.023 237.604C101.513 244.069 111.305 243.87 112.906 237.604C122.842 198.924 142.714 162.3 174.554 137.445C177.402 135.235 176.883 130.317 174.554 127.985C171.738 125.167 167.93 125.775 165.103 127.985C136.499 150.287 116.903 182.137 105.3 216.286C104.041 215.07 98.488 204.439 84.0366 197.189C82.4977 196.333 80.6882 196.105 78.9852 196.551C77.2822 196.998 75.8172 198.086 74.8955 199.587C73.1622 202.56 74.0564 207.113 77.2912 208.738L77.2801 208.782Z" fill="url(#paint1_linear)"/>
<path d="M190.639 179.772H207.994C218.459 179.772 225.348 185.298 225.348 194.492V194.625C225.348 204.637 217.002 209.809 207.132 209.809H195.872V226.188H190.639V179.772ZM207.331 205.035C215.059 205.035 220.049 200.924 220.049 194.824V194.691C220.049 188.06 215.081 184.612 207.596 184.612H195.872V205.035H207.331Z" fill="black"/>
<path d="M230.736 216.241V216.109C230.736 208.881 236.698 205.057 245.375 205.057C248.938 205.025 252.487 205.516 255.907 206.516V205.323C255.907 199.156 252.132 195.973 245.706 195.973C242.094 196.014 238.538 196.875 235.307 198.493L233.783 194.316C237.663 192.427 241.922 191.452 246.236 191.464C251.072 191.464 254.781 192.724 257.276 195.244C259.595 197.565 260.787 200.88 260.787 205.256V226.254H255.885V221.027C254.438 222.925 252.559 224.451 250.405 225.477C248.251 226.504 245.883 227.001 243.498 226.928C237.206 226.917 230.736 223.237 230.736 216.241ZM255.974 213.589V210.274C252.704 209.309 249.314 208.818 245.905 208.815C239.48 208.815 235.903 211.6 235.903 215.91V216.042C235.903 220.352 239.877 222.872 244.514 222.872C250.851 222.872 256.018 219.026 256.018 213.589H255.974Z" fill="black"/>
<path d="M269.597 209.213V209.08C269.588 205.443 270.69 201.891 272.753 198.897C274.816 195.904 277.743 193.613 281.142 192.329C284.541 191.046 288.251 190.832 291.775 191.716C295.299 192.601 298.469 194.541 300.862 197.277L297.484 200.858C294.768 198.007 291.721 195.686 287.084 195.686C280.129 195.686 274.83 201.587 274.83 208.947V209.08C274.83 216.507 280.261 222.408 287.415 222.408C291.831 222.408 295.143 220.198 297.881 217.302L301.127 220.352C297.683 224.198 293.576 226.983 287.15 226.983C284.83 226.979 282.533 226.515 280.392 225.618C278.251 224.721 276.309 223.409 274.677 221.757C273.045 220.105 271.756 218.146 270.884 215.993C270.013 213.84 269.575 211.536 269.597 209.213Z" fill="black"/>
<path d="M309.54 177.794H314.64V211.202L333.121 191.906H339.48L325.128 206.627L339.966 226.188H333.85L321.595 210.207L314.64 217.236V226.188H309.54V177.794Z" fill="black"/>
<path d="M343.984 216.241V216.109C343.984 208.881 349.946 205.057 358.623 205.057C362.187 205.025 365.735 205.516 369.156 206.516V205.323C369.156 199.156 365.38 195.973 358.955 195.973C355.342 196.014 351.786 196.875 348.555 198.493L347.031 194.316C350.911 192.427 355.171 191.452 359.485 191.464C364.32 191.464 368.029 192.724 370.525 195.244C372.843 197.565 374.035 200.88 374.035 205.256V226.254H369.133V221.027C367.686 222.925 365.808 224.451 363.653 225.477C361.499 226.504 359.131 227.001 356.747 226.928C350.41 226.917 343.984 223.237 343.984 216.241ZM369.222 213.589V210.274C365.952 209.309 362.562 208.818 359.153 208.815C352.728 208.815 349.151 211.6 349.151 215.91V216.042C349.151 220.352 353.125 222.872 357.762 222.872C364.055 222.872 369.222 219.026 369.222 213.589Z" fill="black"/>
<path d="M384.523 232.155L386.842 228.177C390.635 231.044 395.259 232.596 400.012 232.597C407.564 232.597 412.476 228.42 412.476 220.441V216.396C409.496 220.375 405.311 223.624 399.03 223.624C396.912 223.659 394.808 223.269 392.843 222.476C390.879 221.683 389.093 220.504 387.592 219.007C386.091 217.511 384.905 215.728 384.105 213.765C383.305 211.802 382.907 209.697 382.933 207.577V207.445C382.943 204.001 384.047 200.649 386.086 197.876C388.125 195.102 390.993 193.049 394.275 192.015C397.556 190.982 401.081 191.02 404.34 192.125C407.598 193.23 410.421 195.344 412.399 198.161V191.995H417.5V220.308C417.5 225.613 415.91 229.658 413.084 232.465C410.048 235.515 405.477 237.04 400.045 237.04C394.491 237.058 389.068 235.352 384.523 232.155ZM412.609 207.422V207.29C412.609 200.261 406.504 195.686 400.012 195.686C393.521 195.686 388.166 200.195 388.166 207.223V207.356C388.157 208.907 388.459 210.444 389.053 211.877C389.647 213.309 390.523 214.608 391.627 215.696C392.731 216.784 394.043 217.639 395.483 218.211C396.923 218.783 398.463 219.06 400.012 219.026C406.504 219.026 412.609 214.318 412.609 207.422Z" fill="black"/>
<path d="M426.784 209.146V209.014C426.784 199.134 433.739 191.177 443.212 191.177C453.335 191.177 459.176 199.267 459.176 209.279C459.19 209.833 459.164 210.387 459.098 210.937H431.951C432.68 218.363 437.913 222.541 443.996 222.541C446.045 222.567 448.077 222.149 449.95 221.315C451.823 220.482 453.494 219.252 454.848 217.711L458.016 220.562C456.309 222.637 454.152 224.294 451.709 225.408C449.266 226.523 446.602 227.065 443.918 226.994C434.468 226.983 426.784 219.756 426.784 209.146ZM453.998 207.157C453.468 200.924 449.891 195.487 443.068 195.487C437.118 195.487 432.613 200.46 431.951 207.157H453.998Z" fill="black"/>
<path d="M465.27 221.811L467.853 218.164C471.219 220.884 475.376 222.435 479.699 222.585C483.806 222.585 486.787 220.463 486.787 217.148V217.015C486.787 213.567 482.746 212.241 478.253 210.981C472.876 209.456 466.926 207.599 466.926 201.3V201.134C466.926 195.233 471.828 191.321 478.584 191.321C482.96 191.404 487.224 192.713 490.894 195.1L488.575 198.946C485.577 196.914 482.07 195.765 478.452 195.631C474.4 195.631 471.828 197.753 471.828 200.604V200.736C471.828 203.985 476.056 205.245 480.66 206.638C485.959 208.229 491.7 210.285 491.7 216.451V216.606C491.7 223.104 486.334 226.884 479.556 226.884C474.365 226.817 469.342 225.033 465.27 221.811Z" fill="black"/>
<defs>
<linearGradient id="paint0_linear" x1="56.6021" y1="180.38" x2="167.819" y2="180.38" gradientUnits="userSpaceOnUse">
<stop stop-color="#8C6239"/>
<stop offset="0.2" stop-color="#A1774C"/>
<stop offset="0.47" stop-color="#B58B5E"/>
<stop offset="0.74" stop-color="#C29869"/>
<stop offset="1" stop-color="#C69C6D"/>
</linearGradient>
<linearGradient id="paint1_linear" x1="125.26" y1="242.422" x2="125.26" y2="126.14" gradientUnits="userSpaceOnUse">
<stop stop-color="#69F407"/>
<stop offset="1" stop-color="#00B024"/>
</linearGradient>
</defs>
</svg>
