<svg width="6" height="8" viewBox="0 0 6 8" fill="none" xmlns="http://www.w3.org/2000/svg">
<path d="M3 0C2.88468 0 2.76946 0.0448079 2.68135 0.132917L0.132163 2.6821C-0.0440544 2.85787 -0.0440545 3.14318 0.132163 3.3194L0.170894 3.35813C0.346661 3.53435 0.631973 3.53435 0.808191 3.35813L2.54931 1.61701V7.50761C2.54931 7.75638 2.75122 7.95829 3 7.95829C3.24878 7.95829 3.45069 7.75638 3.45069 7.50761V1.61701L5.19181 3.35813C5.36758 3.53435 5.65289 3.53435 5.82911 3.35813L5.86784 3.3194C6.04405 3.14363 6.04405 2.85832 5.86784 2.6821L3.31865 0.132917C3.23076 0.0448079 3.11532 0 3 0Z" fill="black"/>
</svg>